<?xml version="1.0" encoding="UTF-8"?>
<svg width="32px" height="32px" viewBox="0 0 32 32" version="1.1" xmlns="http://www.w3.org/2000/svg">
    <g stroke="none" stroke-width="1" fill="none" fill-rule="evenodd">
        <path d="M26,8 L26,4 C26,2.8954305 25.1045695,2 24,2 L8,2 C6.8954305,2 6,2.8954305 6,4 L6,8 L4,8 C2.8954305,8 2,8.8954305 2,10 L2,22 C2,23.1045695 2.8954305,24 4,24 L6,24 L6,28 C6,29.1045695 6.8954305,30 8,30 L24,30 C25.1045695,30 26,29.1045695 26,28 L26,24 L28,24 C29.1045695,24 30,23.1045695 30,22 L30,10 C30,8.8954305 29.1045695,8 28,8 L26,8 Z" fill="#321FDB" fill-rule="nonzero"/>
        <path d="M24,4 L24,8 L8,8 L8,4 L24,4 Z M24,24 L24,28 L8,28 L8,24 L24,24 Z" fill="#FFFFFF" fill-rule="nonzero"/>
    </g>
</svg> 